<svg width="559" height="559" viewBox="0 0 559 559" fill="none" xmlns="http://www.w3.org/2000/svg">
<g clip-path="url(#clip0_830_1339)">
<rect width="559" height="559" rx="279.5" fill="#222222"/>
<g filter="url(#filter0_i_830_1339)">
<path fill-rule="evenodd" clip-rule="evenodd" d="M287.612 43.937C282.761 41.2244 276.848 41.2244 271.997 43.937L72.9411 155.226C67.8827 158.054 64.749 163.396 64.749 169.191V390.888C64.749 396.684 67.8827 402.026 72.9411 404.854L271.997 516.143C276.848 518.855 282.761 518.855 287.612 516.143L486.668 404.854C491.726 402.026 494.86 396.684 494.86 390.888V169.191C494.86 163.396 491.726 158.054 486.668 155.226L287.612 43.937ZM204.526 145.939C212.002 141.167 221.765 137.541 230.371 136.341C248.641 133.791 267.96 139.727 281.534 152.06C292.568 162.086 299.704 176.298 300.944 190.712L301.376 195.739L319.855 195.887L338.334 196.036V177.993V159.95H369.471H400.609V171.786V183.621H381.985H363.36V225.891V268.161H381.985H400.609V279.996V291.832H381.985H363.36V334.102V376.371H381.985H400.609V388.207V400.042H369.471H338.334V381.999V363.956L319.855 364.105L301.376 364.254L300.944 369.28C298.848 393.658 280.92 414.89 256.687 421.69C238.689 426.741 220.152 424.027 204.526 414.054C195.245 408.131 186.17 397.527 182.107 387.857C180.855 384.875 180.557 384.587 177.478 383.374C167.493 379.44 156.542 370.653 150.425 361.665C136.479 341.175 136.551 315.322 150.611 294.368C151.859 292.508 155.452 288.514 158.596 285.491L164.313 279.996L158.596 274.501C155.452 271.479 151.859 267.484 150.611 265.625C136.551 244.671 136.479 218.818 150.425 198.328C156.542 189.34 167.493 180.552 177.478 176.619C180.557 175.406 180.855 175.117 182.107 172.136C186.17 162.466 195.245 151.862 204.526 145.939ZM276.01 191.129C274.022 177.223 264.743 166.421 250.61 161.561C246.101 160.01 235.324 159.613 230.409 160.816C222.611 162.725 214.049 168.171 209.404 174.174C204.196 180.907 201.797 188.944 202.31 197.941C202.793 206.428 205.461 212.875 211.202 219.428L214.412 223.092L206.453 231.818C202.076 236.618 198.3 240.545 198.061 240.545C197.265 240.545 190.24 232.966 187.997 229.687C183.54 223.175 179.293 213.309 178.484 207.59C178.285 206.187 177.899 205.038 177.625 205.038C176.696 205.038 172.178 210.107 169.961 213.638C166.338 219.408 165.185 223.868 165.19 232.091C165.195 239.883 165.826 242.459 169.333 249.011C174.637 258.919 185.167 265.951 197.092 267.55C199.78 267.911 211.884 268.161 226.63 268.161H251.614V279.996V291.832H226.63C211.884 291.832 199.78 292.082 197.092 292.442C182.521 294.396 171.205 303.693 166.28 317.757C164.639 322.445 164.738 333.572 166.469 338.892C167.989 343.564 171.209 348.888 174.648 352.413C177.386 355.22 178.281 355.553 178.281 353.768C178.281 351.649 180.06 345.767 182.184 340.865C184.722 335.007 190.576 326.308 194.432 322.662L197.292 319.958L203.612 326.607C207.088 330.264 210.834 334.19 211.937 335.331L213.943 337.407L211.267 340.369C199.899 352.952 199.099 372.497 209.404 385.818C214.23 392.056 222.758 397.363 230.969 399.235C236.315 400.455 245.821 400.063 250.61 398.425C264.717 393.601 274.021 382.772 276.01 368.863C276.89 362.714 276.89 197.278 276.01 191.129ZM338.334 268.177V243.934V219.691H319.982C305.832 219.691 301.566 219.853 301.351 220.396C301.197 220.784 301.14 231.626 301.224 244.49L301.376 267.879L319.855 268.028L338.334 268.177ZM338.334 340.317V316.074V291.832H319.982C305.832 291.832 301.566 291.993 301.351 292.537C301.197 292.924 301.14 303.767 301.224 316.631L301.376 340.019L319.855 340.168L338.334 340.317Z" fill="#FFDE28"/>
</g>
</g>
<defs>
<filter id="filter0_i_830_1339" x="64.749" y="41.9026" width="430.111" height="482.275" filterUnits="userSpaceOnUse" color-interpolation-filters="sRGB">
<feFlood flood-opacity="0" result="BackgroundImageFix"/>
<feBlend mode="normal" in="SourceGraphic" in2="BackgroundImageFix" result="shape"/>
<feColorMatrix in="SourceAlpha" type="matrix" values="0 0 0 0 0 0 0 0 0 0 0 0 0 0 0 0 0 0 127 0" result="hardAlpha"/>
<feOffset dy="6"/>
<feGaussianBlur stdDeviation="3.5"/>
<feComposite in2="hardAlpha" operator="arithmetic" k2="-1" k3="1"/>
<feColorMatrix type="matrix" values="0 0 0 0 0 0 0 0 0 0 0 0 0 0 0 0 0 0 0.4 0"/>
<feBlend mode="normal" in2="shape" result="effect1_innerShadow_830_1339"/>
</filter>
<clipPath id="clip0_830_1339">
<rect width="559" height="559" fill="white"/>
</clipPath>
</defs>
</svg>
