<svg width="4166" height="2287" xmlns="http://www.w3.org/2000/svg" xmlns:xlink="http://www.w3.org/1999/xlink" xml:space="preserve" overflow="hidden"><g transform="translate(-142 -87)"><g><path d="M148.5 1429.83C148.5 1390.44 180.437 1358.5 219.834 1358.5L927.166 1358.5C966.563 1358.5 998.5 1390.44 998.5 1429.83L998.5 1715.17C998.5 1754.56 966.563 1786.5 927.166 1786.5L219.834 1786.5C180.437 1786.5 148.5 1754.56 148.5 1715.17Z" stroke="#042433" stroke-width="6.875" stroke-linecap="butt" stroke-linejoin="miter" stroke-miterlimit="8" stroke-opacity="1" fill="#156082" fill-rule="evenodd" fill-opacity="1"/><text fill="#FFFFFF" fill-opacity="1" font-family="Aptos,Aptos_MSFontService,sans-serif" font-style="normal" font-variant="normal" font-weight="400" font-stretch="normal" font-size="138" text-anchor="start" direction="ltr" writing-mode="lr-tb" unicode-bidi="normal" text-decoration="none" transform="matrix(1 0 0 1 229.077 1534)">LiDAR Point </text><text fill="#FFFFFF" fill-opacity="1" font-family="Aptos,Aptos_MSFontService,sans-serif" font-style="normal" font-variant="normal" font-weight="400" font-stretch="normal" font-size="138" text-anchor="start" direction="ltr" writing-mode="lr-tb" unicode-bidi="normal" text-decoration="none" transform="matrix(1 0 0 1 392.977 1699)">Cloud</text><path d="M1245.5 230.834C1245.5 172.107 1293.11 124.5 1351.83 124.5L4194.17 124.5C4252.89 124.5 4300.5 172.107 4300.5 230.834L4300.5 656.166C4300.5 714.893 4252.89 762.5 4194.17 762.5L1351.83 762.5C1293.11 762.5 1245.5 714.893 1245.5 656.166Z" stroke="#042433" stroke-width="6.875" stroke-linecap="butt" stroke-linejoin="miter" stroke-miterlimit="8" stroke-opacity="1" fill="#F2AA84" fill-rule="evenodd" fill-opacity="1"/><path d="M1245.5 940.154C1245.5 879.041 1295.04 829.5 1356.15 829.5L4189.85 829.5C4250.96 829.5 4300.5 879.041 4300.5 940.154L4300.5 2257.85C4300.5 2318.96 4250.96 2368.5 4189.85 2368.5L1356.15 2368.5C1295.04 2368.5 1245.5 2318.96 1245.5 2257.85Z" stroke="#042433" stroke-width="6.875" stroke-linecap="butt" stroke-linejoin="miter" stroke-miterlimit="8" stroke-opacity="1" fill="#B4E5A2" fill-rule="evenodd" fill-opacity="1"/><path d="M148.5 448.834C148.5 409.437 180.437 377.5 219.834 377.5L927.166 377.5C966.563 377.5 998.5 409.437 998.5 448.834L998.5 734.165C998.5 773.562 966.563 805.5 927.166 805.5L219.834 805.5C180.437 805.5 148.5 773.562 148.5 734.165Z" stroke="#042433" stroke-width="6.875" stroke-linecap="butt" stroke-linejoin="miter" stroke-miterlimit="8" stroke-opacity="1" fill="#156082" fill-rule="evenodd" fill-opacity="1"/><text fill="#FFFFFF" fill-opacity="1" font-family="Aptos,Aptos_MSFontService,sans-serif" font-style="normal" font-variant="normal" font-weight="400" font-stretch="normal" font-size="138" text-anchor="start" direction="ltr" writing-mode="lr-tb" unicode-bidi="normal" text-decoration="none" transform="matrix(1 0 0 1 355.497 553)">Vehicle </text><text fill="#FFFFFF" fill-opacity="1" font-family="Aptos,Aptos_MSFontService,sans-serif" font-style="normal" font-variant="normal" font-weight="400" font-stretch="normal" font-size="138" text-anchor="start" direction="ltr" writing-mode="lr-tb" unicode-bidi="normal" text-decoration="none" transform="matrix(1 0 0 1 273.914 718)">Odometry</text><path d="M1342.5 400.834C1342.5 364.751 1371.75 335.5 1407.83 335.5L2126.17 335.5C2162.25 335.5 2191.5 364.751 2191.5 400.834L2191.5 662.166C2191.5 698.249 2162.25 727.5 2126.17 727.5L1407.83 727.5C1371.75 727.5 1342.5 698.249 1342.5 662.166Z" stroke="#042433" stroke-width="6.875" stroke-linecap="butt" stroke-linejoin="miter" stroke-miterlimit="8" stroke-opacity="1" fill="#156082" fill-rule="evenodd" fill-opacity="1"/><text fill="#FFFFFF" fill-opacity="1" font-family="Aptos,Aptos_MSFontService,sans-serif" font-style="normal" font-variant="normal" font-weight="400" font-stretch="normal" font-size="138" text-anchor="start" direction="ltr" writing-mode="lr-tb" unicode-bidi="normal" text-decoration="none" transform="matrix(1 0 0 1 1597.56 575)">SLAM</text><path d="M2402.5 401.835C2402.5 365.752 2431.75 336.5 2467.83 336.5L3187.17 336.5C3223.25 336.5 3252.5 365.752 3252.5 401.835L3252.5 663.165C3252.5 699.248 3223.25 728.5 3187.17 728.5L2467.83 728.5C2431.75 728.5 2402.5 699.248 2402.5 663.165Z" stroke="#042433" stroke-width="6.875" stroke-linecap="butt" stroke-linejoin="miter" stroke-miterlimit="8" stroke-opacity="1" fill="#156082" fill-rule="evenodd" fill-opacity="1"/><text fill="#FFFFFF" fill-opacity="1" font-family="Aptos,Aptos_MSFontService,sans-serif" font-style="normal" font-variant="normal" font-weight="400" font-stretch="normal" font-size="138" text-anchor="start" direction="ltr" writing-mode="lr-tb" unicode-bidi="normal" text-decoration="none" transform="matrix(1 0 0 1 2697.19 576)">Map</text><path d="M3391.5 402.834C3391.5 366.751 3420.75 337.5 3456.83 337.5L4198.17 337.5C4234.25 337.5 4263.5 366.751 4263.5 402.834L4263.5 664.166C4263.5 700.249 4234.25 729.5 4198.17 729.5L3456.83 729.5C3420.75 729.5 3391.5 700.249 3391.5 664.166Z" stroke="#042433" stroke-width="6.875" stroke-linecap="butt" stroke-linejoin="miter" stroke-miterlimit="8" stroke-opacity="1" fill="#156082" fill-rule="evenodd" fill-opacity="1"/><text fill="#FFFFFF" fill-opacity="1" font-family="Aptos,Aptos_MSFontService,sans-serif" font-style="normal" font-variant="normal" font-weight="400" font-stretch="normal" font-size="138" text-anchor="start" direction="ltr" writing-mode="lr-tb" unicode-bidi="normal" text-decoration="none" transform="matrix(1 0 0 1 3537.63 495)">Race Line </text><text fill="#FFFFFF" fill-opacity="1" font-family="Aptos,Aptos_MSFontService,sans-serif" font-style="normal" font-variant="normal" font-weight="400" font-stretch="normal" font-size="138" text-anchor="start" direction="ltr" writing-mode="lr-tb" unicode-bidi="normal" text-decoration="none" transform="matrix(1 0 0 1 3444.16 660)">Optimization</text><path d="M1342.5 1461.84C1342.5 1422.44 1374.44 1390.5 1413.83 1390.5L2120.17 1390.5C2159.56 1390.5 2191.5 1422.44 2191.5 1461.84L2191.5 1747.16C2191.5 1786.56 2159.56 1818.5 2120.17 1818.5L1413.83 1818.5C1374.44 1818.5 1342.5 1786.56 1342.5 1747.16Z" stroke="#042433" stroke-width="6.875" stroke-linecap="butt" stroke-linejoin="miter" stroke-miterlimit="8" stroke-opacity="1" fill="#156082" fill-rule="evenodd" fill-opacity="1"/><text fill="#FFFFFF" fill-opacity="1" font-family="Aptos,Aptos_MSFontService,sans-serif" font-style="normal" font-variant="normal" font-weight="400" font-stretch="normal" font-size="138" text-anchor="start" direction="ltr" writing-mode="lr-tb" unicode-bidi="normal" text-decoration="none" transform="matrix(1 0 0 1 1540.84 1566)">Particle </text><text fill="#FFFFFF" fill-opacity="1" font-family="Aptos,Aptos_MSFontService,sans-serif" font-style="normal" font-variant="normal" font-weight="400" font-stretch="normal" font-size="138" text-anchor="start" direction="ltr" writing-mode="lr-tb" unicode-bidi="normal" text-decoration="none" transform="matrix(1 0 0 1 1616.38 1731)">Filter</text><path d="M2388.5 940.168C2388.5 901.139 2420.14 869.5 2459.17 869.5L3166.83 869.5C3205.86 869.5 3237.5 901.139 3237.5 940.168L3237.5 1222.83C3237.5 1261.86 3205.86 1293.5 3166.83 1293.5L2459.17 1293.5C2420.14 1293.5 2388.5 1261.86 2388.5 1222.83Z" stroke="#042433" stroke-width="6.875" stroke-linecap="butt" stroke-linejoin="miter" stroke-miterlimit="8" stroke-opacity="1" fill="#156082" fill-rule="evenodd" fill-opacity="1"/><text fill="#FFFFFF" fill-opacity="1" font-family="Aptos,Aptos_MSFontService,sans-serif" font-style="normal" font-variant="normal" font-weight="400" font-stretch="normal" font-size="138" text-anchor="start" direction="ltr" writing-mode="lr-tb" unicode-bidi="normal" text-decoration="none" transform="matrix(1 0 0 1 2455.4 1125)">Pure Pursuit</text><path d="M2384.5 1980.17C2384.5 1941.14 2416.14 1909.5 2455.17 1909.5L3163.83 1909.5C3202.86 1909.5 3234.5 1941.14 3234.5 1980.17L3234.5 2262.83C3234.5 2301.86 3202.86 2333.5 3163.83 2333.5L2455.17 2333.5C2416.14 2333.5 2384.5 2301.86 2384.5 2262.83Z" stroke="#042433" stroke-width="6.875" stroke-linecap="butt" stroke-linejoin="miter" stroke-miterlimit="8" stroke-opacity="1" fill="#156082" fill-rule="evenodd" fill-opacity="1"/><text fill="#FFFFFF" fill-opacity="1" font-family="Aptos,Aptos_MSFontService,sans-serif" font-style="normal" font-variant="normal" font-weight="400" font-stretch="normal" font-size="138" text-anchor="start" direction="ltr" writing-mode="lr-tb" unicode-bidi="normal" text-decoration="none" transform="matrix(1 0 0 1 2684.8 2083)">Gap </text><text fill="#FFFFFF" fill-opacity="1" font-family="Aptos,Aptos_MSFontService,sans-serif" font-style="normal" font-variant="normal" font-weight="400" font-stretch="normal" font-size="138" text-anchor="start" direction="ltr" writing-mode="lr-tb" unicode-bidi="normal" text-decoration="none" transform="matrix(1 0 0 1 2526.22 2248)">Following</text><path d="M2384.5 1462.34C2384.5 1423.21 2416.21 1391.5 2455.34 1391.5L3163.66 1391.5C3202.79 1391.5 3234.5 1423.21 3234.5 1462.34L3234.5 1745.66C3234.5 1784.79 3202.79 1816.5 3163.66 1816.5L2455.34 1816.5C2416.21 1816.5 2384.5 1784.79 2384.5 1745.66Z" stroke="#042433" stroke-width="6.875" stroke-linecap="butt" stroke-linejoin="miter" stroke-miterlimit="8" stroke-opacity="1" fill="#156082" fill-rule="evenodd" fill-opacity="1"/><text fill="#FFFFFF" fill-opacity="1" font-family="Aptos,Aptos_MSFontService,sans-serif" font-style="normal" font-variant="normal" font-weight="400" font-stretch="normal" font-size="138" text-anchor="start" direction="ltr" writing-mode="lr-tb" unicode-bidi="normal" text-decoration="none" transform="matrix(1 0 0 1 2480.43 1565)">Emergency </text><text fill="#FFFFFF" fill-opacity="1" font-family="Aptos,Aptos_MSFontService,sans-serif" font-style="normal" font-variant="normal" font-weight="400" font-stretch="normal" font-size="138" text-anchor="start" direction="ltr" writing-mode="lr-tb" unicode-bidi="normal" text-decoration="none" transform="matrix(1 0 0 1 2551.68 1730)">Breaking</text><path d="M3402.5 1463.83C3402.5 1424.44 3434.44 1392.5 3473.83 1392.5L4181.17 1392.5C4220.56 1392.5 4252.5 1424.44 4252.5 1463.83L4252.5 1749.17C4252.5 1788.56 4220.56 1820.5 4181.17 1820.5L3473.83 1820.5C3434.44 1820.5 3402.5 1788.56 3402.5 1749.17Z" stroke="#042433" stroke-width="6.875" stroke-linecap="butt" stroke-linejoin="miter" stroke-miterlimit="8" stroke-opacity="1" fill="#156082" fill-rule="evenodd" fill-opacity="1"/><text fill="#FFFFFF" fill-opacity="1" font-family="Aptos,Aptos_MSFontService,sans-serif" font-style="normal" font-variant="normal" font-weight="400" font-stretch="normal" font-size="138" text-anchor="start" direction="ltr" writing-mode="lr-tb" unicode-bidi="normal" text-decoration="none" transform="matrix(1 0 0 1 3661.84 1568)">VESC </text><text fill="#FFFFFF" fill-opacity="1" font-family="Aptos,Aptos_MSFontService,sans-serif" font-style="normal" font-variant="normal" font-weight="400" font-stretch="normal" font-size="138" text-anchor="start" direction="ltr" writing-mode="lr-tb" unicode-bidi="normal" text-decoration="none" transform="matrix(1 0 0 1 3527 1733)">Controller</text><text fill="#000000" fill-opacity="1" font-family="Aptos,Aptos_MSFontService,sans-serif" font-style="normal" font-variant="normal" font-weight="700" font-stretch="normal" font-size="165" text-anchor="start" direction="ltr" writing-mode="lr-tb" unicode-bidi="normal" text-decoration="none" transform="matrix(1 0 0 1 1317.19 293)">Before Race</text><text fill="#000000" fill-opacity="1" font-family="Aptos,Aptos_MSFontService,sans-serif" font-style="normal" font-variant="normal" font-weight="700" font-stretch="normal" font-size="165" text-anchor="start" direction="ltr" writing-mode="lr-tb" unicode-bidi="normal" text-decoration="none" transform="matrix(1 0 0 1 1317.19 1020)">During </text><text fill="#000000" fill-opacity="1" font-family="Aptos,Aptos_MSFontService,sans-serif" font-style="normal" font-variant="normal" font-weight="700" font-stretch="normal" font-size="165" text-anchor="start" direction="ltr" writing-mode="lr-tb" unicode-bidi="normal" text-decoration="none" transform="matrix(1 0 0 1 1317.19 1218)">Race</text><path d="M1.18474-6.77215 311.023 47.4317 308.654 60.976-1.18474 6.77215ZM306.62 32.7027 343.699 60.1276 299.512 73.3356Z" fill="#000000" fill-rule="nonzero" fill-opacity="1" transform="matrix(1 0 0 -1 998 591.128)"/><path d="M998.628 1565.15 1308.1 1593.53 1306.84 1607.22 997.372 1578.85ZM1302.5 1579.21 1341.7 1603.51 1298.74 1620.29Z" fill="#000000" fill-rule="nonzero" fill-opacity="1"/><path d="M6.52862-2.15469 339.455 1006.6 326.397 1010.91-6.52862 2.15469ZM350.357 995.758 343.699 1041.39 311.185 1008.69Z" fill="#000000" fill-rule="nonzero" fill-opacity="1" transform="matrix(1 0 0 -1 998 1572.39)"/><path d="M1004.51 588.791 1337.16 1569.02 1324.14 1573.44 991.49 593.209ZM1347.97 1558.09 1341.7 1603.78 1308.91 1571.35Z" fill="#000000" fill-rule="nonzero" fill-opacity="1"/><path d="M2191.03 524.125 2367.37 524.956 2367.31 538.706 2190.97 537.875ZM2360.56 511.174 2401.71 531.993 2360.37 552.423Z" fill="#000000" fill-rule="nonzero" fill-opacity="1"/><path d="M3252.06 525.125 3357.24 526.106 3357.11 539.856 3251.94 538.875ZM3350.49 512.293 3391.55 533.302 3350.11 553.541Z" fill="#000000" fill-rule="nonzero" fill-opacity="1"/><path d="M6.43693-2.41485 190.68 488.695 177.806 493.525-6.43693 2.41485ZM201.139 477.428 196.317 523.295 162.517 491.918Z" fill="#000000" fill-rule="nonzero" fill-opacity="1" transform="matrix(1 0 0 -1 2191 1604.29)"/><path d="M2197.44 1601.6 2378.05 2086.75 2365.17 2091.54 2184.56 1606.4ZM2388.54 2075.51 2383.6 2121.36 2349.88 2089.9Z" fill="#000000" fill-rule="nonzero" fill-opacity="1"/><path d="M0.0136423-6.87499 158.239-6.56101 158.212 7.18896-0.0136423 6.87499ZM151.392-20.3246 192.601 0.382185 151.31 20.9253Z" fill="#000000" fill-rule="nonzero" fill-opacity="1" transform="matrix(1 0 0 -1 2191 1603.38)"/><path d="M3243.51 1078.78 3397.02 1529.73 3384.01 1534.16 3230.49 1083.22ZM3407.83 1518.79 3401.59 1564.49 3368.78 1532.09Z" fill="#000000" fill-rule="nonzero" fill-opacity="1"/><path d="M6.45359-2.36997 162.914 423.682 150.007 428.422-6.45359 2.36997ZM173.451 412.489 168.31 458.32 134.73 426.709Z" fill="#000000" fill-rule="nonzero" fill-opacity="1" transform="matrix(1 0 0 -1 3234 2121.32)"/><path d="M3234.12 1596.13 3368.06 1598.49 3367.82 1612.24 3233.88 1609.87ZM3361.43 1584.62 3402.31 1605.98 3360.7 1625.87Z" fill="#000000" fill-rule="nonzero" fill-opacity="1"/><path d="M2834.26 728.558 2834.02 731.468 2833.2 734.846 2831.9 738.081 2830.09 741.309 2825.68 746.892 2819.83 752.229 2812.75 757.292 2804.48 762.168 2795.04 766.902 2784.45 771.518 2772.75 776.025 2759.97 780.424 2746.15 784.715 2731.33 788.891 2715.57 792.947 2698.89 796.876 2681.36 800.671 2663.01 804.323 2643.89 807.823 2624.04 811.163 2603.53 814.334 2582.38 817.328 2560.66 820.135 2538.41 822.746 2515.67 825.152 2492.5 827.344 2468.93 829.313 2445.02 831.05 2396.41 833.788 2347 835.485 2297.28 836.067 2297.31 836.066 2284.89 836.271 2285.11 836.263 2272.69 836.872 2272.91 836.858 2260.51 837.865 2260.72 837.844 2248.33 839.242 2248.54 839.215 2236.18 840.999 2236.38 840.966 2224.05 843.128 2224.35 843.069 2199.79 848.505 2200.17 848.409 2175.81 855.282 2176.17 855.17 2152.06 863.43 2152.4 863.303 2128.57 872.898 2128.89 872.759 2105.41 883.639 2105.71 883.489 2082.61 895.601 2082.9 895.442 2060.24 908.736 2060.51 908.569 2038.33 922.992 2038.59 922.818 2016.95 938.32 2017.19 938.139 1996.13 954.667 1996.36 954.48 1975.93 971.984 1976.15 971.79 1956.4 990.219 1956.6 990.018 1937.58 1009.32 1937.78 1009.11 1919.54 1029.24 1919.72 1029.02 1902.31 1049.92 1902.49 1049.69 1885.94 1071.31 1886.11 1071.07 1870.49 1093.35 1870.65 1093.11 1856 1116.01 1856.15 1115.76 1842.52 1139.22 1842.67 1138.96 1830.1 1162.93 1830.24 1162.66 1818.79 1187.1 1818.92 1186.81 1808.63 1211.66 1808.75 1211.36 1799.68 1236.57 1799.79 1236.25 1791.98 1261.77 1792.07 1261.43 1785.57 1287.21 1785.65 1286.86 1780.52 1312.84 1780.58 1312.48 1776.85 1338.61 1776.89 1338.19 1775.44 1356.37 1761.73 1355.27 1763.21 1336.88 1766.99 1310.35 1772.2 1284.02 1778.78 1257.91 1786.69 1232.07 1795.87 1206.55 1806.27 1181.41 1817.85 1156.69 1830.56 1132.44 1844.34 1108.72 1859.15 1085.58 1874.93 1063.06 1891.65 1041.22 1909.25 1020.11 1927.69 999.772 1946.91 980.265 1966.87 961.638 1987.52 943.943 2008.82 927.229 2030.71 911.55 2053.14 896.956 2076.08 883.5 2099.47 871.233 2123.27 860.209 2147.43 850.481 2171.9 842.1 2196.63 835.122 2221.52 829.611 2234.11 827.405 2246.68 825.591 2259.29 824.169 2271.91 823.144 2284.55 822.524 2297.1 822.318 2346.76 821.737 2346.61 821.741 2395.86 820.048 2395.71 820.055 2444.19 817.325 2444.08 817.332 2467.9 815.602 2467.83 815.607 2491.31 813.645 2491.24 813.651 2514.34 811.467 2514.26 811.474 2536.92 809.076 2536.84 809.085 2559.02 806.483 2558.94 806.493 2580.58 803.697 2580.5 803.708 2601.56 800.726 2601.47 800.739 2621.9 797.581 2621.81 797.596 2641.55 794.272 2641.46 794.289 2660.48 790.807 2660.37 790.827 2678.62 787.197 2678.5 787.22 2695.92 783.451 2695.8 783.479 2712.34 779.58 2712.21 779.613 2727.83 775.594 2727.68 775.635 2742.33 771.505 2742.16 771.556 2755.79 767.324 2755.59 767.389 2768.15 763.064 2767.92 763.149 2779.37 758.741 2779.09 758.854 2789.37 754.372 2789.04 754.528 2798.11 749.981 2797.7 750.204 2805.51 745.602 2805 745.933 2811.49 741.284 2810.86 741.796 2816 737.109 2815.24 737.923 2818.97 733.209 2818.36 734.12 2819.68 731.755 2819.3 732.546 2820.26 730.178 2819.95 731.12 2820.53 728.75 2820.36 729.814 2820.55 727.442ZM1789.5 1349.91 1767 1390.16 1748.3 1348Z" fill="#000000" fill-rule="nonzero" fill-opacity="1"/><path d="M3834.22 730.509 3833.21 735.022 3829.86 740.046 3825.26 744.228 3819.59 747.955 3812.83 751.443 3804.95 754.79 3795.96 758.038 3785.87 761.206 3774.72 764.301 3762.53 767.324 3749.34 770.273 3735.2 773.145 3720.15 775.936 3704.22 778.64 3687.47 781.252 3669.93 783.765 3651.66 786.175 3632.7 788.475 3613.09 790.659 3592.88 792.72 3572.12 794.653 3550.84 796.452 3529.11 798.109 3506.94 799.619 3461.58 802.171 3415.1 804.057 3367.86 805.226 3320.31 805.627 3272.82 806.027 3272.93 806.025 3225.81 807.191 3225.92 807.188 3179.54 809.07 3179.65 809.064 3134.38 811.61 3134.47 811.605 3112.37 813.111 3112.42 813.107 3090.74 814.76 3090.8 814.756 3069.58 816.549 3069.64 816.544 3048.94 818.471 3049 818.465 3028.85 820.521 3028.91 820.514 3009.37 822.69 3009.44 822.683 2990.54 824.974 2990.61 824.965 2972.42 827.365 2972.49 827.355 2955.04 829.857 2955.12 829.844 2938.46 832.442 2938.55 832.427 2922.72 835.115 2922.82 835.097 2907.88 837.867 2907.99 837.845 2893.98 840.692 2894.11 840.664 2881.07 843.581 2881.22 843.544 2869.2 846.526 2869.38 846.478 2858.43 849.516 2859.4 849.167 2844.49 855.836 2838.88 843.285 2854.26 836.405 2865.8 833.203 2877.99 830.18 2891.17 827.23 2905.31 824.358 2920.37 821.568 2936.29 818.864 2953.05 816.252 2970.58 813.738 2988.85 811.328 3007.81 809.029 3027.42 806.845 3047.63 804.783 3068.4 802.85 3089.67 801.052 3111.41 799.395 3133.57 797.884 3178.93 795.333 3225.42 793.447 3272.65 792.278 3320.2 791.877 3367.69 791.477 3367.58 791.479 3414.7 790.312 3414.59 790.316 3460.97 788.434 3460.87 788.439 3506.13 785.893 3506.05 785.898 3528.15 784.392 3528.09 784.396 3549.77 782.743 3549.71 782.748 3570.93 780.955 3570.87 780.96 3591.58 779.032 3591.52 779.038 3611.66 776.983 3611.6 776.99 3631.14 774.813 3631.08 774.821 3649.97 772.529 3649.9 772.538 3668.1 770.138 3668.02 770.149 3685.47 767.647 3685.39 767.659 3702.06 765.061 3701.96 765.076 3717.79 762.389 3717.69 762.407 3732.64 759.636 3732.52 759.659 3746.54 756.812 3746.41 756.84 3759.45 753.923 3759.29 753.959 3771.31 750.978 3771.13 751.026 3782.08 747.987 3781.86 748.053 3791.7 744.963 3791.42 745.056 3800.1 741.922 3799.75 742.06 3807.22 738.887 3806.75 739.105 3812.97 735.9 3812.34 736.265 3817.26 733.035 3816.41 733.697 3819.97 730.448 3818.88 731.717 3821.06 728.455 3820.07 730.76 3820.81 727.491ZM2858.79 862.983 2813 868.503 2836.06 828.561Z" fill="#000000" fill-rule="nonzero" fill-opacity="1"/><path d="M0-6.875 411.285-6.875 411.285 1780.17 397.535 1780.17 397.535 0 404.41 6.875 0 6.875ZM425.035 1773.3 404.41 1814.55 383.785 1773.3Z" fill="#000000" fill-rule="nonzero" fill-opacity="1" transform="matrix(1.83697e-16 1 1 -1.83697e-16 573 1786)"/></g></g></svg>